<svg xmlns="http://www.w3.org/2000/svg" xmlns:xlink="http://www.w3.org/1999/xlink" version="1.1" x="0px" y="0px" viewBox="0 0 100 125" style="enable-background:new 0 0 100 100;" xml:space="preserve"><g><path d="M77.8,13.5C69.7,7.4,60.1,4.2,50,4.2c-14.4,0-27.7,6.6-36.5,18.1C-1.8,42.3,2.1,71.1,22.2,86.5c8.1,6.1,17.7,9.4,27.8,9.4   c14.4,0,27.7-6.6,36.5-18.1C101.8,57.7,97.9,28.9,77.8,13.5z M23.4,84.9c-19.3-14.7-23-42.2-8.3-61.4c1.9-2.4,3.9-4.6,6.1-6.5   c0,0,0.1,0.1,0.1,0.1c0.1,0.1,11.4,7,23.7,21.4c0.7,0.8,1.8,1.2,2.8,1c3-0.6,6.1,0.2,8.5,2c4.2,3.2,5.4,8.8,3,13.5   c-0.6,1.2-0.6,2.7,0.2,3.9c5.3,9,9.3,18.1,12.6,28.8c0,0,0,0.1,0.1,0.1c-6.8,4-14.5,6.1-22.3,6.1C40.7,93.8,31.4,90.9,23.4,84.9z    M84.9,76.6c-3.1,4.1-6.8,7.4-10.8,10.1C70.7,76,66.7,66.8,61.4,57.8c-0.4-0.6-0.4-1.3-0.1-1.9c2.9-5.5,1.4-12.2-3.6-16   c-2.9-2.2-6.6-3.1-10.1-2.4c-0.3,0.1-0.7-0.1-0.9-0.3C35.4,24,25,17,22.9,15.6C30.7,9.4,40.3,6.2,50,6.2c9.3,0,18.6,2.9,26.5,9   C95.8,29.8,99.5,57.3,84.9,76.6z"/><path d="M47.7,53c0.7,0.5,1.5,0.8,2.3,0.8c0.2,0,0.3,0,0.5,0c1-0.1,1.9-0.7,2.5-1.5c0.6-0.8,0.9-1.8,0.7-2.8s-0.7-1.9-1.5-2.5   s-1.8-0.9-2.8-0.7c-1,0.1-1.9,0.7-2.5,1.5s-0.9,1.8-0.7,2.8C46.4,51.5,46.9,52.4,47.7,53z M48.6,48.9c0.3-0.4,0.7-0.6,1.2-0.7   c0.1,0,0.2,0,0.2,0c0.4,0,0.8,0.1,1.1,0.4c0.4,0.3,0.6,0.7,0.7,1.2c0.1,0.5-0.1,0.9-0.4,1.3c-0.3,0.4-0.7,0.6-1.2,0.7   c-0.5,0.1-0.9-0.1-1.3-0.4c-0.4-0.3-0.6-0.7-0.7-1.2C48.2,49.8,48.3,49.3,48.6,48.9z"/><path d="M53.1,60.2c-3.7,1.1-7.8,0.1-10.6-2.6c-3.8-3.7-4.3-9.5-1.3-13.8c0.3-0.5,0.2-1.1-0.2-1.4c-0.5-0.3-1.1-0.2-1.4,0.2   c-3.6,5.1-2.9,12,1.6,16.4c2.4,2.3,5.6,3.6,8.9,3.6c1.2,0,2.5-0.2,3.7-0.5c0.5-0.2,0.8-0.7,0.7-1.2S53.6,60.1,53.1,60.2z"/></g></svg>