<svg xmlns="http://www.w3.org/2000/svg" xmlns:xlink="http://www.w3.org/1999/xlink" xml:space="preserve" version="1.1" style="shape-rendering:geometricPrecision;text-rendering:geometricPrecision;image-rendering:optimizeQuality;" viewBox="0 0 847 1058.75" x="0px" y="0px" fill-rule="evenodd" clip-rule="evenodd"><defs><style type="text/css">
   
    .fil0 {fill:black}
   
  </style></defs><g><path class="fil0" d="M819 152c0,-31 -41,-55 -122,-73 -70,-16 -162,-25 -260,-25l0 -37c0,-18 -27,-18 -27,0l0 37c-98,0 -190,9 -260,25 -82,18 -123,42 -123,73 0,9 4,18 12,26 -8,9 -12,18 -12,27 0,31 41,55 123,73 68,15 156,24 251,25l0 386 -142 118c-15,12 14,46 29,34l113 -95 0 77c0,19 44,19 44,0l0 -77 114 95c15,12 43,-22 28,-34l-142 -118 0 -386c95,-1 184,-10 252,-25 81,-18 122,-42 122,-73 0,-9 -3,-18 -11,-27 8,-8 11,-17 11,-26zm-382 -27l0 -8c52,1 86,9 98,15 -42,20 -181,20 -224,0 13,-6 47,-14 99,-15l0 8c0,18 27,18 27,0zm254 127c-152,34 -384,34 -535,0 -81,-18 -102,-39 -102,-47 0,-3 2,-6 7,-10 20,11 50,22 89,30 152,34 395,34 547,0 39,-8 69,-19 89,-30 4,4 7,7 7,10 0,8 -22,29 -102,47zm0 -53c-148,33 -387,33 -535,0 -81,-18 -102,-39 -102,-47 0,-8 21,-29 102,-47 68,-15 158,-24 254,-25l0 10c-31,0 -59,3 -81,8 -21,5 -49,13 -49,34 0,20 28,29 49,33 54,12 135,12 189,0 21,-4 48,-13 48,-33 0,-21 -27,-29 -48,-34 -22,-5 -51,-8 -81,-8l0 -10c96,1 186,10 254,25 80,18 102,39 102,47 0,8 -22,29 -102,47z"/></g></svg>