<svg xmlns="http://www.w3.org/2000/svg" viewBox="0 0 60 75" x="0px" y="0px"><title>Music - 013 - Bass Drum</title><path d="M43.42871,15.57129a1,1,0,0,0,.707-1.707,19.96917,19.96917,0,0,0-28.27148,0,.99989.99989,0,0,0,1.41406,1.41406,17.9699,17.9699,0,0,1,25.44336,0A.99676.99676,0,0,0,43.42871,15.57129Z"/><path d="M.38623,59.78955a1.00018,1.00018,0,0,0,1.40332-.17578L8.16406,51.418l1.3291,1.3291a3.00422,3.00422,0,0,0,4.24365,0l1.1781-1.1781A27.57066,27.57066,0,0,0,24,55.3382V58a2.002,2.002,0,0,0,2,2h8a2.002,2.002,0,0,0,2-2V55.3382a27.57336,27.57336,0,0,0,9.08521-3.7691l1.178,1.178a3.00422,3.00422,0,0,0,4.24365,0l1.3291-1.3291,6.37451,8.1958a1.00005,1.00005,0,0,0,1.5791-1.22754l-6.52832-8.39355,1.48584-1.48584a3.00422,3.00422,0,0,0,0-4.24365l-1.176-1.176a27.87729,27.87729,0,0,0-.008-30.16644l1.184-1.184a3.00422,3.00422,0,0,0,0-4.24365L50.50684,3.25293a3.00333,3.00333,0,0,0-4.24365,0L45.07892,4.43719a27.84126,27.84126,0,0,0-30.15814-.00031l-1.184-1.184a3.00333,3.00333,0,0,0-4.24365,0L5.25293,7.49316a3.00422,3.00422,0,0,0,0,4.24365l1.18427,1.18427a27.87385,27.87385,0,0,0-.00781,30.16565L5.25293,44.26318a3.00422,3.00422,0,0,0,0,4.24365l1.48584,1.48584L.21045,58.38623A1.00027,1.00027,0,0,0,.38623,59.78955ZM34,57a1.0013,1.0013,0,0,1-1,1H27a1.0013,1.0013,0,0,1-1-1V55h8Zm0-4H26V51h8Zm-8-4V44a1.0013,1.0013,0,0,1,1-1h2v6Zm8,0H31V43h2a1.0013,1.0013,0,0,1,1,1ZM28,33a1.0013,1.0013,0,0,1-1-1V27a1.0013,1.0013,0,0,1,1-1h4a1.0013,1.0013,0,0,1,1,1v5a1.0013,1.0013,0,0,1-1,1Zm5,8H31V35h1a3.00328,3.00328,0,0,0,3-3V27a3.00328,3.00328,0,0,0-3-3H28a3.00328,3.00328,0,0,0-3,3v5a3.00328,3.00328,0,0,0,3,3h1v6H27a3.00328,3.00328,0,0,0-3,3v5.13708a22,22,0,1,1,12,0V44A3.00328,3.00328,0,0,0,33,41Zm20.625,5.38525a.9949.9949,0,0,1-.292.70752L49.09277,51.333a1.02922,1.02922,0,0,1-1.41553,0l-.9281-.9281a28.12081,28.12081,0,0,0,5.00916-4.78674c.22058-.27374.44177-.559.66266-.853l.912.912A.9952.9952,0,0,1,53.625,46.38525ZM47.67725,4.667a1.02922,1.02922,0,0,1,1.41553,0L53.333,8.90723a1.00377,1.00377,0,0,1,0,1.41553l-.93567.93567a27.52223,27.52223,0,0,0-5.65582-5.6557ZM6.375,9.61523a.9952.9952,0,0,1,.292-.708L10.90723,4.667a1.02922,1.02922,0,0,1,1.41553,0l.93567.93567a27.52223,27.52223,0,0,0-5.6557,5.65582L6.667,10.32275A.9949.9949,0,0,1,6.375,9.61523ZM4,28A26.02362,26.02362,0,0,1,30,2,26.02362,26.02362,0,0,1,56,28a25.8712,25.8712,0,0,1-4.51953,14.65674c-.42139.60205-.85156,1.17578-1.27637,1.70264a26.10211,26.10211,0,0,1-5.54932,5.106A25.62829,25.62829,0,0,1,36,53.29364v-2.0874a24,24,0,1,0-12,0v2.0874a25.63078,25.63078,0,0,1-8.65674-3.82977A26.08578,26.08578,0,0,1,9.79834,44.3623c-.42725-.52979-.85742-1.10352-1.27246-1.69678A25.87737,25.87737,0,0,1,4,28ZM6.667,47.09277a1.00377,1.00377,0,0,1,0-1.41553l.912-.912c.22095.29395.443.58026.6651.8559a28.10452,28.10452,0,0,0,5.00677,4.78375l-.92816.92816a1.02922,1.02922,0,0,1-1.41553,0Z"/></svg>