<svg xmlns="http://www.w3.org/2000/svg" xmlns:xlink="http://www.w3.org/1999/xlink" version="1.1" x="0px" y="0px" viewBox="0 0 100 125" enable-background="new 0 0 100 100" xml:space="preserve"><path d="M85.303,62.559c0-1.332-0.335-2.672-1.061-3.271v-5.865c0-0.009-0.004-0.017-0.004-0.025  c0.234-0.295,0.414-0.597,0.535-0.91c0.115-0.15,0.187-0.336,0.187-0.541v-3.146c0-0.218-0.081-0.415-0.211-0.57  C82.619,43.071,64.443,40.3,47.28,40.3c-5.088,0-10.265,0.244-15.087,0.722L6.816,23.92c-0.527-0.35-1.292-0.193-1.64,0.332  c-0.175,0.263-0.237,0.579-0.174,0.889s0.243,0.577,0.507,0.752l23.657,15.462c-10.046,1.244-17.991,3.566-19.355,6.87  C9.682,48.38,9.6,48.578,9.6,48.795v3.146c0,0.205,0.071,0.391,0.188,0.541c0.105,0.274,0.258,0.543,0.451,0.805  c-0.006,0.043-0.013,0.087-0.013,0.132v5.865c-0.726,0.601-1.061,1.938-1.061,3.272c0,1.33,0.334,2.67,1.061,3.271v3.444  c-0.362,0.112-0.625,0.447-0.625,0.847v3.149c0,0.203,0.071,0.39,0.188,0.539c1.987,5.205,20.246,8.002,37.492,8.002  c17.247,0,35.505-2.797,37.493-8.002c0.115-0.149,0.188-0.336,0.188-0.539v-3.149c0-0.433-0.309-0.794-0.718-0.876V65.83  C84.968,65.229,85.303,63.891,85.303,62.559z M12.009,71.729c0-0.012,0.003-0.021,0.003-0.033v-16.84  c2.717,1.74,7.531,3.094,13.378,4.037c0,0.006-0.002,0.013-0.002,0.021v5.571c-0.725,0.603-1.06,1.939-1.06,3.271  c0,1.333,0.335,2.671,1.06,3.271v5.104C18.266,74.947,13.61,73.279,12.009,71.729z M40.821,48.974  c0.106,0.57,0.604,1.153,1.482,1.736c0.724,0.479,1.349,0.724,1.86,0.724c0.466,0,0.845-0.199,1.097-0.578  c0.381-0.575,0.469-1.508-1.282-2.669c-0.879-0.584-1.606-0.815-2.175-0.691l-4.213-2.838c3.013-0.181,6.248-0.281,9.691-0.281  c19.508,0,32.409,3.211,35.284,6.018c-2.875,2.808-15.775,6.019-35.284,6.019c-19.508,0-32.409-3.211-35.283-6.019  c2.19-2.141,10.215-4.513,22.548-5.521L40.821,48.974z M47.28,58.701c-20.236,0-33.36-3.455-35.561-6.33  c5.507,3.804,20.898,5.826,35.561,5.826c14.664,0,30.054-2.022,35.561-5.826C80.641,55.246,67.518,58.701,47.28,58.701z   M27.175,71.029c0.726-0.602,1.061-1.939,1.061-3.272c0-1.332-0.335-2.671-1.061-3.271v-5.32c5.848,0.833,12.557,1.277,19.166,1.316  v5.883c-0.726,0.602-1.061,1.939-1.061,3.271c0,1.333,0.334,2.673,1.061,3.273v4.821c-7.447-0.041-13.9-0.549-19.166-1.319V71.029z   M48.127,72.909c0.726-0.601,1.06-1.94,1.06-3.273c0-1.331-0.334-2.67-1.06-3.271v-5.883c6.604-0.034,13.313-0.476,19.166-1.303  v5.307c-0.727,0.601-1.061,1.938-1.061,3.271c0,1.333,0.334,2.672,1.061,3.272v5.396c-5.27,0.767-11.725,1.271-19.166,1.308V72.909z   M69.079,71.029c0.726-0.602,1.06-1.939,1.06-3.272c0-1.332-0.334-2.671-1.06-3.271v-5.578c5.819-0.934,10.628-2.27,13.377-3.988  v16.775c0,0.039,0.007,0.074,0.011,0.111c-1.679,1.533-6.326,3.174-13.388,4.34V71.029z M47.28,42.086  c20.236,0,33.361,3.453,35.561,6.329c-5.507-3.804-20.897-5.827-35.561-5.827c-4.045,0-8.146,0.155-12.081,0.457l-0.684-0.46  C38.367,42.27,42.633,42.086,47.28,42.086z M31.481,42.87l0.678,0.442c-9.058,0.898-16.848,2.622-20.439,5.103  C13.278,46.378,20.319,44.054,31.481,42.87z M47.28,80.025c-20.236,0-33.36-3.455-35.561-6.33c2.74,1.894,7.92,3.345,14.249,4.326  c0.098,0.035,0.203,0.06,0.314,0.06c0.018,0,0.035-0.005,0.052-0.006c6.314,0.954,13.717,1.446,20.946,1.446  c14.662,0,30.054-2.021,35.561-5.826C80.641,76.57,67.518,80.025,47.28,80.025z"/><path d="M94.926,18.955c-0.221-0.593-0.919-0.921-1.523-0.696L53.969,33.245c-0.523-0.25-1.287-0.191-2.275,0.176  c-0.848,0.316-1.425,0.697-1.716,1.133c-0.242,0.364-0.291,0.77-0.14,1.175c0.146,0.394,0.507,0.863,1.392,0.863l0,0  c0.422,0,0.934-0.112,1.521-0.331c0.988-0.367,1.604-0.822,1.838-1.353l39.641-14.432c0.297-0.11,0.533-0.33,0.664-0.617  C95.023,19.572,95.035,19.251,94.926,18.955z"/></svg>