<svg xmlns="http://www.w3.org/2000/svg" xmlns:xlink="http://www.w3.org/1999/xlink" version="1.1" x="0px" y="0px" viewBox="0 0 100 125" style="enable-background:new 0 0 100 100;" xml:space="preserve"><path d="M94.8,55.3c0-3.7-2.7-6.7-6.2-7.4c-1.7-3.7-4-7.1-6.7-10.1c0.1-0.5,0.2-1,0.2-1.6c0-4.1-3.4-7.5-7.5-7.5  c-1.1,0-2.2,0.3-3.2,0.7c-4.1-2.3-8.6-3.9-13.3-4.6c-1.2-2.4-3.7-4.1-6.6-4.1c-2.9,0-5.4,1.7-6.6,4.1c-4.7,0.8-9.2,2.3-13.4,4.6  c-1-0.5-2-0.7-3.2-0.7c-4.1,0-7.5,3.4-7.5,7.5c0,0.5,0.1,1.1,0.2,1.6c-2.8,3-5,6.4-6.7,10.1C10.6,48.5,8,51.6,8,55.3  c0,2.2,1,4.2,2.5,5.6c-0.2,1.5-0.3,3.1-0.3,4.6c0,3.7,0.5,7.4,1.5,11c0.9,3.2,3.7,5.3,7,5.3c2.3,0,4.3-1,5.7-2.9  c0.5-0.7,1.1-1.4,1.7-2.1c0.7,0.2,1.4,0.3,2.1,0.3c4.1,0,7.5-3.4,7.5-7.5c0-0.2,0-0.4,0-0.6c0.7-0.4,1.4-0.7,2.1-1  c0.6,1.1,2,1.6,3.2,1.2c3.9-1.3,12.2-3.3,20.9-0.1c1.2,0.4,2.6,0,3.2-1.1c0.7,0.3,1.4,0.7,2,1c0,0.2,0,0.4,0,0.6  c0,4.1,3.4,7.5,7.5,7.5c0.7,0,1.4-0.1,2.1-0.3c0.6,0.7,1.2,1.4,1.7,2.1c1.4,1.8,3.4,2.9,5.7,2.9c3.3,0,6.1-2.1,7-5.3  c1.2-4.4,1.7-9,1.4-13.6c0-0.7-0.1-1.4-0.2-2.1C93.8,59.5,94.8,57.5,94.8,55.3z M74.6,30.8c2.9,0,5.3,2.3,5.5,5.2  c-2-1.9-4.1-3.6-6.4-5.1C74,30.8,74.3,30.8,74.6,30.8z M51.4,22.8c1.6,0,3,0.7,4,1.7c-0.4,0-0.7-0.1-1.1-0.1c-1-0.1-1.9-0.1-2.9-0.1  c0,0,0,0,0,0c-1.3,0-2.7,0.1-4,0.2C48.4,23.4,49.8,22.8,51.4,22.8z M28.2,30.8c0.3,0,0.6,0,0.9,0.1c-2.3,1.5-4.4,3.2-6.4,5.1  C22.9,33,25.3,30.8,28.2,30.8z M10,55.3c0-2.2,1.3-4,3.1-4.9c-1,2.5-1.7,5.2-2.2,7.9C10.3,57.4,10,56.4,10,55.3z M28.2,75.1  c-0.2,0-0.3,0-0.5,0c1.8-1.9,3.8-3.5,6-4.8C33.4,73,31,75.1,28.2,75.1z M22.7,69.2c0.2-2.8,2.6-5.1,5.5-5.1c0.2,0,0.5,0,0.7,0.1  C26.7,65.6,24.6,67.3,22.7,69.2z M31.2,62.8c-0.9-0.4-1.9-0.7-3-0.7c-4.1,0-7.5,3.4-7.5,7.5c0,0.5,0.1,1,0.2,1.5  c-0.5,0.5-1,1.1-1.4,1.6c-0.1,0.1-0.2,0.2-0.4,0.2c-0.2,0-0.4-0.1-0.4-0.4c-0.5-2.3-0.8-4.7-0.8-7.1c0-1.1,0.1-2.1,0.2-3.2  c2.9-1.1,4.9-3.8,4.9-7c0-1.7-0.6-3.4-1.6-4.6c1.3-2.6,2.9-5,4.8-7.2c0.7,0.2,1.3,0.3,2,0.3c4.1,0,7.5-3.4,7.5-7.5  c0-0.1,0-0.2,0-0.4c3-1.6,6.2-2.7,9.6-3.3c1.4,1.9,3.6,3.2,6.1,3.2c2.5,0,4.8-1.3,6.1-3.2c3.4,0.6,6.6,1.8,9.6,3.3  c0,0.1,0,0.3,0,0.4c0,4.1,3.4,7.5,7.5,7.5c0.7,0,1.4-0.1,2.1-0.3c1.9,2.2,3.5,4.6,4.8,7.2c-1,1.3-1.6,2.9-1.6,4.6c0,3.2,2.1,6,4.9,7  c0,0.4,0.1,0.7,0.1,1.1c0.2,3.1-0.1,6.2-0.7,9.2c0,0.2-0.2,0.4-0.4,0.4c-0.1,0-0.3-0.1-0.4-0.2c-0.5-0.6-0.9-1.1-1.4-1.6  c0.1-0.5,0.2-1,0.2-1.5c0-4.1-3.4-7.5-7.5-7.5c-1.1,0-2.1,0.2-3,0.7c-1-0.6-2.1-1.1-3.2-1.6c0.5-1.4-0.1-2.9-1.5-3.5  c-0.9-0.4-1.9-0.7-2.8-1c-0.6-0.2-1.2-0.1-1.7,0.1c-0.3,0.1-0.6,0.1-0.9,0.1c-0.8,0-1.5-0.3-2-0.8c-0.4-0.4-1-0.7-1.6-0.8  c-1.1-0.2-2.2-0.3-3.3-0.3c-0.6,0-1.3,0.1-1.8,0.4c-0.4,0.2-0.9,0.4-1.4,0.4c-0.4,0-0.9-0.1-1.2-0.3C49.6,55.2,49,55,48.4,55  c-1.1,0.1-2.2,0.2-3.3,0.4c-0.7,0.1-1.5,0.3-2,0.8c-0.5,0.4-1.1,0.7-1.8,0.7c-0.2,0-0.5,0-0.7-0.1c-0.7-0.2-1.5-0.1-2.2,0.1  c-0.9,0.3-1.7,0.5-2.4,0.8c-1.4,0.5-2.1,2.1-1.6,3.4C33.3,61.6,32.3,62.2,31.2,62.8z M20.4,52.8c0.4,0.7,0.6,1.6,0.6,2.5  c0,2-1.1,3.7-2.6,4.7C18.8,57.5,19.5,55.1,20.4,52.8z M27.8,41.7c1.8-1.8,3.7-3.3,5.9-4.6c-0.4,2.6-2.7,4.7-5.4,4.7  C28.1,41.8,27.9,41.7,27.8,41.7z M47.6,32.2c1.3-0.1,2.5-0.2,3.8-0.2c0.8,0,1.6,0,2.4,0.1c0.5,0,1,0.1,1.5,0.1c-1,1-2.3,1.6-3.8,1.6  C49.9,33.8,48.6,33.2,47.6,32.2z M69.1,37c2.1,1.3,4.1,2.9,5.9,4.7c-0.2,0-0.3,0-0.5,0C71.8,41.8,69.5,39.7,69.1,37z M82.4,52.8  c0.9,2.3,1.6,4.7,2,7.1c-1.6-1-2.6-2.7-2.6-4.7C81.8,54.4,82,53.5,82.4,52.8z M73.8,64.2c0.2,0,0.5-0.1,0.7-0.1  c2.9,0,5.3,2.2,5.5,5.1C78.1,67.3,76,65.6,73.8,64.2z M74.6,75.1c-2.8,0-5.1-2.1-5.5-4.9c2.1,1.4,4.1,3,6,4.8  C74.9,75.1,74.7,75.1,74.6,75.1z M89.1,76c-0.7,2.4-2.9,3.8-5.1,3.8c-1.5,0-3.1-0.7-4.1-2.1c-3.7-4.9-8.5-8.9-14-11.4  c0.5-1.1,1.1-2.2,1.6-3.3c5.4,2.5,10.3,6.2,14.2,11.1c0.5,0.6,1.2,0.9,1.9,0.9c1.2,0,2.2-0.8,2.4-1.9c0.7-3.2,0.9-6.5,0.7-9.7  c-1.1-17.7-15.2-32-32.9-33.2C53,30,52.2,30,51.4,30c-19.6,0-35.5,15.9-35.5,35.5c0,2.6,0.3,5.1,0.8,7.5c0.2,1.1,1.2,1.9,2.4,1.9  c0.7,0,1.4-0.3,1.9-0.9c3.9-4.8,8.8-8.6,14.2-11.1l1.6,3.3c-5.5,2.6-10.4,6.5-14,11.5c-1.1,1.4-2.6,2.1-4.1,2.1  c-2.2,0-4.4-1.4-5.1-3.9c-0.9-3.3-1.4-6.8-1.4-10.4c0-21.6,17.5-39.2,39.2-39.2c0.9,0,1.8,0,2.8,0.1C73.6,27.7,89.3,43.6,90.5,63  C90.7,67.5,90.3,71.9,89.1,76z M91.9,58.2c-0.5-2.7-1.2-5.4-2.2-7.9c1.8,0.9,3.1,2.8,3.1,5C92.8,56.4,92.5,57.4,91.9,58.2z"/></svg>