<svg xmlns="http://www.w3.org/2000/svg" xmlns:xlink="http://www.w3.org/1999/xlink" version="1.1" x="0px" y="0px" viewBox="0 0 100 125" style="enable-background:new 0 0 100 100;" xml:space="preserve"><g><g><path d="M75.5,58.8H75v-1.3c0-0.4-0.3-0.7-0.6-0.8V21.5c0.4-0.1,0.6-0.4,0.6-0.8v-1.6c0,0,0-0.1,0-0.1h0.6c0.4,0,0.8-0.2,1-0.5    c0.3-0.3,0.4-0.7,0.3-1.1l-0.5-3.7c-0.1-0.7-0.7-1.2-1.4-1.2h-0.7v-0.8c1-0.3,1.8-1.2,1.8-2.3V6.9c0-1.3-1-2.3-2.3-2.3H26.2    c-1.3,0-2.3,1-2.3,2.3v2.5c0,1.1,0.8,2.1,1.8,2.3v0.8H25c-0.7,0-1.3,0.5-1.4,1.2l-0.5,3.7c-0.1,0.4,0.1,0.8,0.3,1.1    c0.3,0.3,0.6,0.5,1,0.5h0.6c0,0,0,0.1,0,0.1v1.6c0,0.4,0.3,0.7,0.6,0.8v35.2c-0.4,0.1-0.6,0.4-0.6,0.8v1.3h-0.5    c-0.4,0-0.8,0.2-1,0.5c-0.3,0.3-0.4,0.7-0.3,1.1l0.5,3.7c0.1,0.7,0.7,1.2,1.4,1.2h0.7v0.8c-1,0.3-1.8,1.2-1.8,2.3V71    c0,1.3,1,2.3,2.3,2.3h47.7c1.3,0,2.3-1,2.3-2.3v-2.5c0-1.1-0.8-2.1-1.8-2.3v-0.8H75c0.7,0,1.3-0.5,1.4-1.2l0.5-3.7    c0.1-0.4-0.1-0.8-0.3-1.1C76.3,59,75.9,58.8,75.5,58.8z M64.1,66c-0.8,0-1.7,0.2-2.6,0.6v-2c0.7,0,1.2-0.5,1.3-1.2l0.5-3.7    c0.1-0.4-0.1-0.8-0.3-1.1c-0.3-0.3-0.6-0.5-1-0.5h-0.5l0-0.9c0-0.4-0.3-0.8-0.8-0.8c0,0,0,0,0,0c-0.4,0-0.8,0.3-0.8,0.8l0,0.9    h-0.4c-0.4,0-0.8,0.2-1,0.5c-0.3,0.3-0.4,0.7-0.3,1.1l0.5,3.7c0.1,0.7,0.6,1.2,1.3,1.2v2C59,66.2,58.1,66,57.3,66H42.7    c-0.8,0-1.7,0.2-2.6,0.6v-2c0.7,0,1.2-0.5,1.3-1.2l0.5-3.7c0.1-0.4-0.1-0.8-0.3-1.1c-0.3-0.3-0.6-0.5-1-0.5h-0.5l0-0.9    c0-0.4-0.3-0.8-0.8-0.8c0,0,0,0,0,0c-0.4,0-0.8,0.3-0.8,0.8l0,0.9h-0.4c-0.4,0-0.8,0.2-1,0.5c-0.3,0.3-0.4,0.7-0.3,1.1l0.5,3.7    c0.1,0.7,0.7,1.2,1.3,1.2v2c-0.9-0.4-1.8-0.6-2.6-0.6h-8.7V11.8h8.7c0.8,0,1.7-0.2,2.6-0.6v2c-0.7,0-1.2,0.5-1.3,1.2l-0.5,3.7    c-0.1,0.4,0.1,0.8,0.3,1.1c0.3,0.3,0.6,0.5,1,0.5h0.4v0.9c0,0.4,0.3,0.8,0.8,0.8c0.4,0,0.8-0.3,0.8-0.8v-0.9h0.4    c0.4,0,0.8-0.2,1-0.5c0.3-0.3,0.4-0.7,0.3-1.1l-0.5-3.7c-0.1-0.7-0.7-1.2-1.3-1.2v-2c0.9,0.4,1.8,0.6,2.6,0.6h14.6    c0.8,0,1.7-0.2,2.6-0.6v2c-0.7,0-1.2,0.5-1.3,1.2l-0.5,3.7c-0.1,0.4,0.1,0.8,0.3,1.1c0.3,0.3,0.6,0.5,1,0.5h0.4v0.9    c0,0.4,0.3,0.8,0.8,0.8s0.8-0.3,0.8-0.8v-0.9h0.5c0.4,0,0.8-0.2,1-0.5c0.3-0.3,0.4-0.7,0.3-1.1l-0.5-3.7c-0.1-0.7-0.6-1.2-1.3-1.2    v-2c0.9,0.4,1.8,0.6,2.6,0.6h8.7V66H64.1z M61.7,59.6L61.3,63h-1.1l-0.5-3.4H61.7z M40.4,59.6L39.9,63h-1.1l-0.5-3.4H40.4z     M38.3,18.3l0.5-3.4h1.1l0.5,3.4H38.3z M59.6,18.3l0.5-3.4h1.1l0.5,3.4H59.6z M74.8,14.1l0.5,3.4h-1v-3.4H74.8z M25.4,6.9    c0-0.4,0.3-0.7,0.7-0.7h47.7c0.4,0,0.7,0.3,0.7,0.7v2.5c0,0.5-0.4,0.9-0.9,0.9h-9.6c-0.9,0-1.8-0.3-2.6-0.7c0,0,0,0,0,0V8.2    c0-0.4-0.3-0.8-0.8-0.8s-0.8,0.3-0.8,0.8v1.4c-0.8,0.4-1.7,0.7-2.6,0.7H42.7c-0.9,0-1.8-0.3-2.6-0.7c0,0,0,0,0,0V8.2    c0-0.4-0.3-0.8-0.8-0.8c-0.4,0-0.8,0.3-0.8,0.8v1.4c0,0,0,0,0,0c-0.8,0.4-1.7,0.7-2.6,0.7h-9.6c-0.5,0-0.9-0.4-0.9-0.9V6.9z     M25.2,14.1h0.5v3.4h-1L25.2,14.1z M25.2,63.8l-0.5-3.4h1v3.4H25.2z M74.6,71c0,0.4-0.3,0.7-0.7,0.7H26.2c-0.4,0-0.7-0.3-0.7-0.7    v-2.5c0-0.5,0.4-0.9,0.9-0.9h9.6c0.9,0,1.8,0.3,2.6,0.7c0,0,0,0,0,0v1.4c0,0.4,0.3,0.8,0.8,0.8c0.4,0,0.8-0.3,0.8-0.8v-1.4    c0.8-0.4,1.7-0.7,2.6-0.7h14.6c0.9,0,1.8,0.3,2.6,0.7c0,0,0,0,0,0v1.4c0,0.4,0.3,0.8,0.8,0.8c0.4,0,0.8-0.3,0.8-0.8v-1.4    c0,0,0,0,0,0c0.8-0.4,1.7-0.7,2.6-0.7h9.6c0.5,0,0.9,0.4,0.9,0.9V71z M74.8,63.8h-0.5v-3.4h1L74.8,63.8z"/></g><g><g><g><path d="M24.9,94.2c-0.4,0-0.8-0.3-0.8-0.8v-7.6c0-0.2,0.1-0.4,0.2-0.6l7.2-7.2V60.8c0-0.4,0.3-0.8,0.8-0.8      c0.4,0,0.8,0.3,0.8,0.8v17.6c0,0.2-0.1,0.4-0.2,0.6l-7.2,7.2v7.3C25.7,93.9,25.3,94.2,24.9,94.2z"/></g><g><path d="M75.1,94.2c-0.4,0-0.8-0.3-0.8-0.8v-7.3l-7.2-7.2c-0.1-0.1-0.2-0.3-0.2-0.6V60.8c0-0.4,0.3-0.8,0.8-0.8s0.8,0.3,0.8,0.8      v17.2l7.2,7.2c0.1,0.1,0.2,0.3,0.2,0.6v7.6C75.9,93.9,75.5,94.2,75.1,94.2z"/></g><g><path d="M23,95.4l0.6-3.1c0.1-0.3,0.3-0.5,0.6-0.5h1.2c0.3,0,0.6,0.2,0.6,0.5l0.6,3.1c0.1,0.4-0.2,0.8-0.6,0.8h-2.5      C23.2,96.2,22.9,95.8,23,95.4z"/></g><g><path d="M73.2,95.4l0.6-3.1c0.1-0.3,0.3-0.5,0.6-0.5h1.2c0.3,0,0.6,0.2,0.6,0.5l0.6,3.1c0.1,0.4-0.2,0.8-0.6,0.8h-2.5      C73.5,96.2,73.2,95.8,73.2,95.4z"/></g></g><g><g><path d="M48.1,92.3l0.6-3.1c0.1-0.3,0.3-0.5,0.6-0.5h1.2c0.3,0,0.6,0.2,0.6,0.5l0.6,3.1c0.1,0.4-0.2,0.8-0.6,0.8h-2.5      C48.3,93,48,92.7,48.1,92.3z"/></g><g><path d="M50,91.6c-0.4,0-0.8-0.3-0.8-0.8V72.8c0-0.4,0.3-0.8,0.8-0.8s0.8,0.3,0.8,0.8v18.1C50.8,91.3,50.4,91.6,50,91.6z"/></g></g></g></g></svg>